<svg width="216" height="46" viewBox="0 0 216 46" fill="none" xmlns="http://www.w3.org/2000/svg">
<path d="M39.0237 0.81654C40.3421 0.750623 41.6605 1.34389 42.5174 2.39858C43.3744 3.38736 43.704 4.77165 43.3744 6.09002L40.2762 23.5584C39.9466 25.4701 39.0897 27.2499 37.7713 28.6341C38.5623 30.2162 38.826 31.996 38.4964 33.7099L36.4529 45.3115H22.8737L24.8513 34.1054C24.9172 33.6439 24.7854 33.2484 24.5217 32.8529C24.258 32.5233 23.7966 32.3256 23.4011 32.3256H15.8864L13.5792 45.3115H0L7.8443 0.81654H39.0237ZM29.0701 9.97921C29.2019 9.5837 29.0701 9.12227 28.8064 8.72676C28.4768 8.39717 28.0813 8.19941 27.6198 8.26533H20.1051L17.2047 24.9427H24.7194C25.7082 24.8768 26.5652 24.1517 26.7629 23.1629L29.0701 9.97921ZM82.8668 0.81654C84.1851 0.750623 85.5035 1.34389 86.3604 2.39858C87.1515 3.38736 87.481 4.77165 87.2174 6.09002L80.23 45.4434H66.6508L68.9579 32.3256H59.5316L57.2245 45.4434H43.6452L50.5667 6.09002C51.16 3.12369 53.7308 0.948379 56.763 0.81654H82.8668ZM72.9131 9.97921C72.979 9.5837 72.9131 9.12227 72.5835 8.72676C72.3198 8.39717 71.9243 8.19941 71.4629 8.26533H65.5302C64.5414 8.26533 63.6845 8.99043 63.4867 9.97921L60.85 24.9427H70.2763L72.9131 9.97921ZM94.0095 0.81654H132.374L131.056 8.26533H118.663L112.137 45.4434H98.492L105.084 8.26533H92.7571L94.0095 0.81654ZM169.922 8.26533H152.652L149.685 24.9427H166.956L165.704 32.3256H148.367L147.378 38.0605H164.649L163.331 45.5093H132.481L140.325 0.81654H171.241L169.922 8.26533ZM210.452 0.81654C211.77 0.750623 213.023 1.34389 213.88 2.39858C214.737 3.38736 215.066 4.77165 214.737 6.09002L208.738 40.2358C208.145 43.2021 205.574 45.3774 202.542 45.5093H171.362L179.207 0.81654H210.452ZM200.498 9.97921C200.564 9.5837 200.432 9.12227 200.169 8.72676C199.905 8.39717 199.444 8.19941 199.048 8.26533H191.533L186.26 38.0605H193.775C194.763 37.9946 195.62 37.2695 195.818 36.2807L200.498 9.97921Z" fill="url(#paint0_linear_146_9)"/>
<defs>
<linearGradient id="paint0_linear_146_9" x1="107.58" y1="-16.5566" x2="107.58" y2="59.4434" gradientUnits="userSpaceOnUse">
<stop stop-color="#81B5F9"/>
<stop offset="0.99" stop-color="white" stop-opacity="0.74"/>
</linearGradient>
</defs>
</svg>
