<svg width="66" height="44" viewBox="0 0 66 44" fill="none" xmlns="http://www.w3.org/2000/svg">
<path opacity="0.86" d="M10.546 1.17871C10.546 3.68941 8.5107 5.72473 6 5.72473C8.5107 5.72473 10.546 7.76004 10.546 10.2708C10.546 7.76004 12.5813 5.72473 15.092 5.72473C12.5813 5.72473 10.546 3.68941 10.546 1.17871Z" fill="url(#paint0_linear_100_123)" stroke="url(#paint1_linear_100_123)" stroke-width="1.09624" stroke-linecap="round" stroke-linejoin="round"/>
<path opacity="0.86" d="M21.5206 1.17871C21.5206 3.68941 19.4853 5.72473 16.9746 5.72473C19.4853 5.72473 21.5206 7.76004 21.5206 10.2708C21.5206 7.76004 23.5559 5.72473 26.0667 5.72473C23.5559 5.72473 21.5206 3.68941 21.5206 1.17871Z" fill="url(#paint2_linear_100_123)" stroke="url(#paint3_linear_100_123)" stroke-width="1.09624" stroke-linecap="round" stroke-linejoin="round"/>
<path opacity="0.86" d="M32.4933 1.17871C32.4933 3.68941 30.458 5.72473 27.9473 5.72473C30.458 5.72473 32.4933 7.76004 32.4933 10.2708C32.4933 7.76004 34.5286 5.72473 37.0393 5.72473C34.5286 5.72473 32.4933 3.68941 32.4933 1.17871Z" fill="url(#paint4_linear_100_123)" stroke="url(#paint5_linear_100_123)" stroke-width="1.09624" stroke-linecap="round" stroke-linejoin="round"/>
<path opacity="0.86" d="M43.4679 1.17871C43.4679 3.68941 41.4326 5.72473 38.9219 5.72473C41.4326 5.72473 43.4679 7.76004 43.4679 10.2708C43.4679 7.76004 45.5032 5.72473 48.0139 5.72473C45.5032 5.72473 43.4679 3.68941 43.4679 1.17871Z" fill="url(#paint6_linear_100_123)" stroke="url(#paint7_linear_100_123)" stroke-width="1.09624" stroke-linecap="round" stroke-linejoin="round"/>
<path opacity="0.86" d="M54.4425 1.17871C54.4425 3.68941 52.4072 5.72473 49.8965 5.72473C52.4072 5.72473 54.4425 7.76004 54.4425 10.2708C54.4425 7.76004 56.4778 5.72473 58.9885 5.72473C56.4778 5.72473 54.4425 3.68941 54.4425 1.17871Z" fill="url(#paint8_linear_100_123)" stroke="url(#paint9_linear_100_123)" stroke-width="1.09624" stroke-linecap="round" stroke-linejoin="round"/>
<path d="M11.9705 25.6604C12.3749 25.6402 12.7793 25.8222 13.0422 26.1457C13.305 26.449 13.4061 26.8736 13.305 27.278L12.3547 32.6364C12.2536 33.2228 11.9907 33.7688 11.5863 34.1934C11.8289 34.6787 11.9098 35.2246 11.8087 35.7504L11.1819 39.3092H7.01648L7.62309 35.8717C7.64331 35.7302 7.60287 35.6088 7.52199 35.4875C7.44111 35.3864 7.29956 35.3258 7.17824 35.3258H4.87312L4.1654 39.3092H0L2.40623 25.6604H11.9705ZM8.91719 28.471C8.95764 28.3497 8.91719 28.2082 8.83631 28.0868C8.73521 27.9857 8.61389 27.9251 8.47235 27.9453H6.16722L5.27752 33.0611H7.58265C7.88595 33.0408 8.14882 32.8184 8.20948 32.5151L8.91719 28.471ZM25.4193 25.6604C25.8237 25.6402 26.2281 25.8222 26.4909 26.1457C26.7336 26.449 26.8347 26.8736 26.7538 27.278L24.6104 39.3496H20.445L21.1527 35.3258H18.2612L17.5535 39.3496H13.3881L15.5113 27.278C15.6932 26.3681 16.4818 25.7008 17.412 25.6604H25.4193ZM22.366 28.471C22.3862 28.3497 22.366 28.2082 22.2649 28.0868C22.184 27.9857 22.0627 27.9251 21.9211 27.9453H20.1013C19.798 27.9453 19.5351 28.1677 19.4745 28.471L18.6656 33.0611H21.5572L22.366 28.471ZM28.8373 25.6604H40.6056L40.2012 27.9453H36.3997L34.3979 39.3496H30.2123L32.2343 27.9453H28.4531L28.8373 25.6604ZM52.1234 27.9453H46.8257L45.9158 33.0611H51.2135L50.8293 35.3258H45.5114L45.2081 37.0849H50.5058L50.1014 39.3698H40.6383L43.0445 25.6604H52.5278L52.1234 27.9453ZM64.5558 25.6604C64.9602 25.6402 65.3444 25.8222 65.6073 26.1457C65.8702 26.449 65.9713 26.8736 65.8702 27.278L64.0301 37.7522C63.8481 38.6621 63.0595 39.3294 62.1294 39.3698H52.5651L54.9714 25.6604H64.5558ZM61.5025 28.471C61.5228 28.3497 61.4823 28.2082 61.4014 28.0868C61.3206 27.9857 61.179 27.9251 61.0577 27.9453H58.7526L57.1349 37.0849H59.4401C59.7434 37.0647 60.0062 36.8423 60.0669 36.539L61.5025 28.471Z" fill="url(#paint10_linear_100_123)"/>
<defs>
<linearGradient id="paint0_linear_100_123" x1="10.546" y1="1.17871" x2="10.546" y2="10.2708" gradientUnits="userSpaceOnUse">
<stop stop-color="#FFA5FE"/>
<stop offset="0.99" stop-color="white" stop-opacity="0.74"/>
</linearGradient>
<linearGradient id="paint1_linear_100_123" x1="10.546" y1="1.17871" x2="10.546" y2="10.2708" gradientUnits="userSpaceOnUse">
<stop stop-color="#FFA5FE"/>
<stop offset="0.99" stop-color="white" stop-opacity="0.74"/>
</linearGradient>
<linearGradient id="paint2_linear_100_123" x1="21.5206" y1="1.17871" x2="21.5206" y2="10.2708" gradientUnits="userSpaceOnUse">
<stop stop-color="#FFA5FE"/>
<stop offset="0.99" stop-color="white" stop-opacity="0.74"/>
</linearGradient>
<linearGradient id="paint3_linear_100_123" x1="21.5206" y1="1.17871" x2="21.5206" y2="10.2708" gradientUnits="userSpaceOnUse">
<stop stop-color="#FFA5FE"/>
<stop offset="0.99" stop-color="white" stop-opacity="0.74"/>
</linearGradient>
<linearGradient id="paint4_linear_100_123" x1="32.4933" y1="1.17871" x2="32.4933" y2="10.2708" gradientUnits="userSpaceOnUse">
<stop stop-color="#FFA5FE"/>
<stop offset="0.99" stop-color="white" stop-opacity="0.74"/>
</linearGradient>
<linearGradient id="paint5_linear_100_123" x1="32.4933" y1="1.17871" x2="32.4933" y2="10.2708" gradientUnits="userSpaceOnUse">
<stop stop-color="#FFA5FE"/>
<stop offset="0.99" stop-color="white" stop-opacity="0.74"/>
</linearGradient>
<linearGradient id="paint6_linear_100_123" x1="43.4679" y1="1.17871" x2="43.4679" y2="10.2708" gradientUnits="userSpaceOnUse">
<stop stop-color="#FFA5FE"/>
<stop offset="0.99" stop-color="white" stop-opacity="0.74"/>
</linearGradient>
<linearGradient id="paint7_linear_100_123" x1="43.4679" y1="1.17871" x2="43.4679" y2="10.2708" gradientUnits="userSpaceOnUse">
<stop stop-color="#FFA5FE"/>
<stop offset="0.99" stop-color="white" stop-opacity="0.74"/>
</linearGradient>
<linearGradient id="paint8_linear_100_123" x1="54.4425" y1="1.17871" x2="54.4425" y2="10.2708" gradientUnits="userSpaceOnUse">
<stop stop-color="#FFA5FE"/>
<stop offset="0.99" stop-color="white" stop-opacity="0.74"/>
</linearGradient>
<linearGradient id="paint9_linear_100_123" x1="54.4425" y1="1.17871" x2="54.4425" y2="10.2708" gradientUnits="userSpaceOnUse">
<stop stop-color="#FFA5FE"/>
<stop offset="0.99" stop-color="white" stop-opacity="0.74"/>
</linearGradient>
<linearGradient id="paint10_linear_100_123" x1="33" y1="20.3496" x2="33" y2="43.3496" gradientUnits="userSpaceOnUse">
<stop stop-color="#FFA5FE"/>
<stop offset="0.99" stop-color="white" stop-opacity="0.74"/>
</linearGradient>
</defs>
</svg>
