<svg width="219" height="131" viewBox="0 0 219 131" fill="none" xmlns="http://www.w3.org/2000/svg">
<path opacity="0.86" d="M21.0124 2.70898C21.0124 12.6569 12.9479 20.7213 3 20.7213C12.9479 20.7213 21.0124 28.7857 21.0124 38.7337C21.0124 28.7857 29.0767 20.7213 39.0247 20.7213C29.0767 20.7213 21.0124 12.6569 21.0124 2.70898Z" fill="url(#paint0_linear_109_144)" stroke="url(#paint1_linear_109_144)" stroke-width="4.34355" stroke-linecap="round" stroke-linejoin="round"/>
<path opacity="0.86" d="M64.4928 2.70898C64.4928 12.6569 56.4284 20.7213 46.4805 20.7213C56.4284 20.7213 64.4928 28.7857 64.4928 38.7337C64.4928 28.7857 72.5572 20.7213 82.5052 20.7213C72.5572 20.7213 64.4928 12.6569 64.4928 2.70898Z" fill="url(#paint2_linear_109_144)" stroke="url(#paint3_linear_109_144)" stroke-width="4.34355" stroke-linecap="round" stroke-linejoin="round"/>
<path opacity="0.86" d="M107.975 2.70898C107.975 12.6569 99.9108 20.7213 89.9629 20.7213C99.9108 20.7213 107.975 28.7857 107.975 38.7337C107.975 28.7857 116.04 20.7213 125.988 20.7213C116.04 20.7213 107.975 12.6569 107.975 2.70898Z" fill="url(#paint4_linear_109_144)" stroke="url(#paint5_linear_109_144)" stroke-width="4.34355" stroke-linecap="round" stroke-linejoin="round"/>
<path opacity="0.86" d="M151.456 2.70898C151.456 12.6569 143.391 20.7213 133.443 20.7213C143.391 20.7213 151.456 28.7857 151.456 38.7337C151.456 28.7857 159.52 20.7213 169.468 20.7213C159.52 20.7213 151.456 12.6569 151.456 2.70898Z" fill="url(#paint6_linear_109_144)" stroke="url(#paint7_linear_109_144)" stroke-width="4.34355" stroke-linecap="round" stroke-linejoin="round"/>
<path opacity="0.86" d="M194.936 2.70898C194.936 12.6569 186.872 20.7213 176.924 20.7213C186.872 20.7213 194.936 28.7857 194.936 38.7337C194.936 28.7857 203.001 20.7213 212.949 20.7213C203.001 20.7213 194.936 12.6569 194.936 2.70898Z" fill="url(#paint8_linear_109_144)" stroke="url(#paint9_linear_109_144)" stroke-width="4.34355" stroke-linecap="round" stroke-linejoin="round"/>
<path d="M42.0237 72.8165C43.3421 72.7506 44.6605 73.3439 45.5174 74.3986C46.3744 75.3874 46.704 76.7716 46.3744 78.09L43.2762 95.5584C42.9466 97.4701 42.0897 99.2499 40.7713 100.634C41.5623 102.216 41.826 103.996 41.4964 105.71L39.4529 117.312H25.8737L27.8513 106.105C27.9172 105.644 27.7854 105.248 27.5217 104.853C27.258 104.523 26.7966 104.326 26.4011 104.326H18.8864L16.5792 117.312H3L10.8443 72.8165H42.0237ZM32.0701 81.9792C32.2019 81.5837 32.0701 81.1223 31.8064 80.7268C31.4768 80.3972 31.0813 80.1994 30.6198 80.2653H23.1051L20.2047 96.9427H27.7194C28.7082 96.8768 29.5652 96.1517 29.7629 95.1629L32.0701 81.9792ZM85.8668 72.8165C87.1851 72.7506 88.5035 73.3439 89.3604 74.3986C90.1515 75.3874 90.481 76.7716 90.2174 78.09L83.23 117.443H69.6508L71.958 104.326H62.5316L60.2245 117.443H46.6453L53.5667 78.09C54.16 75.1237 56.7308 72.9484 59.763 72.8165H85.8668ZM75.9131 81.9792C75.979 81.5837 75.9131 81.1223 75.5835 80.7268C75.3198 80.3972 74.9243 80.1994 74.4629 80.2653H68.5302C67.5414 80.2653 66.6845 80.9904 66.4867 81.9792L63.85 96.9427H73.2763L75.9131 81.9792ZM97.0096 72.8165H135.374L134.056 80.2653H121.663L115.137 117.443H101.492L108.084 80.2653H95.7571L97.0096 72.8165ZM172.922 80.2653H155.652L152.685 96.9427H169.956L168.704 104.326H151.367L150.378 110.06H167.649L166.331 117.509H135.481L143.325 72.8165H174.241L172.922 80.2653ZM213.452 72.8165C214.77 72.7506 216.023 73.3439 216.88 74.3986C217.737 75.3874 218.066 76.7716 217.737 78.09L211.738 112.236C211.145 115.202 208.574 117.377 205.542 117.509H174.362L182.207 72.8165H213.452ZM203.498 81.9792C203.564 81.5837 203.432 81.1223 203.169 80.7268C202.905 80.3972 202.444 80.1994 202.048 80.2653H194.533L189.26 110.06H196.775C197.763 109.995 198.62 109.269 198.818 108.281L203.498 81.9792Z" fill="url(#paint10_linear_109_144)"/>
<defs>
<linearGradient id="paint0_linear_109_144" x1="21.0124" y1="2.70898" x2="21.0124" y2="38.7337" gradientUnits="userSpaceOnUse">
<stop stop-color="#FFA5FE"/>
<stop offset="0.99" stop-color="white" stop-opacity="0.74"/>
</linearGradient>
<linearGradient id="paint1_linear_109_144" x1="21.0124" y1="2.70898" x2="21.0124" y2="38.7337" gradientUnits="userSpaceOnUse">
<stop stop-color="#FFA5FE"/>
<stop offset="0.99" stop-color="white" stop-opacity="0.74"/>
</linearGradient>
<linearGradient id="paint2_linear_109_144" x1="64.4928" y1="2.70898" x2="64.4928" y2="38.7337" gradientUnits="userSpaceOnUse">
<stop stop-color="#FFA5FE"/>
<stop offset="0.99" stop-color="white" stop-opacity="0.74"/>
</linearGradient>
<linearGradient id="paint3_linear_109_144" x1="64.4928" y1="2.70898" x2="64.4928" y2="38.7337" gradientUnits="userSpaceOnUse">
<stop stop-color="#FFA5FE"/>
<stop offset="0.99" stop-color="white" stop-opacity="0.74"/>
</linearGradient>
<linearGradient id="paint4_linear_109_144" x1="107.975" y1="2.70898" x2="107.975" y2="38.7337" gradientUnits="userSpaceOnUse">
<stop stop-color="#FFA5FE"/>
<stop offset="0.99" stop-color="white" stop-opacity="0.74"/>
</linearGradient>
<linearGradient id="paint5_linear_109_144" x1="107.975" y1="2.70898" x2="107.975" y2="38.7337" gradientUnits="userSpaceOnUse">
<stop stop-color="#FFA5FE"/>
<stop offset="0.99" stop-color="white" stop-opacity="0.74"/>
</linearGradient>
<linearGradient id="paint6_linear_109_144" x1="151.456" y1="2.70898" x2="151.456" y2="38.7337" gradientUnits="userSpaceOnUse">
<stop stop-color="#FFA5FE"/>
<stop offset="0.99" stop-color="white" stop-opacity="0.74"/>
</linearGradient>
<linearGradient id="paint7_linear_109_144" x1="151.456" y1="2.70898" x2="151.456" y2="38.7337" gradientUnits="userSpaceOnUse">
<stop stop-color="#FFA5FE"/>
<stop offset="0.99" stop-color="white" stop-opacity="0.74"/>
</linearGradient>
<linearGradient id="paint8_linear_109_144" x1="194.936" y1="2.70898" x2="194.936" y2="38.7337" gradientUnits="userSpaceOnUse">
<stop stop-color="#FFA5FE"/>
<stop offset="0.99" stop-color="white" stop-opacity="0.74"/>
</linearGradient>
<linearGradient id="paint9_linear_109_144" x1="194.936" y1="2.70898" x2="194.936" y2="38.7337" gradientUnits="userSpaceOnUse">
<stop stop-color="#FFA5FE"/>
<stop offset="0.99" stop-color="white" stop-opacity="0.74"/>
</linearGradient>
<linearGradient id="paint10_linear_109_144" x1="110.58" y1="55.4434" x2="110.58" y2="130.423" gradientUnits="userSpaceOnUse">
<stop stop-color="#FFA5FE"/>
<stop offset="0.99" stop-color="white" stop-opacity="0.74"/>
</linearGradient>
</defs>
</svg>
