<svg width="1381" height="116" viewBox="0 0 1381 116" fill="none" xmlns="http://www.w3.org/2000/svg">
<path d="M447.904 3.28375C436.423 1.93408 376.993 0.584428 311.71 0.134539C248.003 -0.0904057 192.175 -0.0904219 187.898 0.584412C183.62 1.0343 165.836 3.95856 148.503 7.10779C131.169 10.0321 111.809 13.6312 105.731 14.7559C99.4279 16.1056 83.8951 20.1546 70.8385 23.9786C57.7819 27.5778 41.1235 33.4263 33.6947 37.0254C26.266 40.3996 16.8112 46.2482 12.534 49.8473C8.48196 53.4464 3.52947 58.8451 1.95368 61.9943C-0.0723478 66.0433 -0.522589 73.0166 0.602979 87.638C1.95366 105.409 2.85414 108.108 7.80664 111.932C11.1833 114.406 17.0363 116.206 21.7637 115.981C26.4911 115.981 32.344 115.081 34.8203 113.732C37.2965 112.382 39.3225 109.233 39.3225 106.533C39.3225 103.609 35.9458 97.9855 31.8938 93.9365L24.6902 86.2883C36.8463 76.1658 49.0024 69.6424 59.5828 65.1435C70.1631 60.8696 88.3973 54.7961 100.103 51.8718C111.809 48.7226 129.593 44.8985 139.498 42.874C149.403 41.0745 167.187 37.7003 178.893 35.6758C196.452 32.5266 220.089 31.8518 309.459 31.1769C369.789 30.727 432.821 31.4018 450.155 32.5265C467.489 33.8762 498.78 36.3506 519.94 38.1502C540.876 40.1747 570.816 43.099 586.349 45.1235C601.882 46.923 627.545 49.8473 643.753 51.6469C659.736 53.6714 687.2 56.5956 704.534 58.6201C721.867 60.4197 740.552 62.4442 746.179 62.8941C751.807 63.344 770.492 66.0433 787.826 68.5177C805.159 71.2171 824.294 73.9164 830.597 74.5912C836.675 75.0411 845.905 76.1658 850.857 76.8407C855.81 77.5155 861.438 77.9654 863.239 77.9654C865.039 78.1903 873.144 79.54 881.248 81.3395C889.352 83.1391 897.681 84.0389 899.707 83.3641C901.958 82.6892 904.209 83.364 904.885 84.4888C905.56 85.8384 911.863 87.1881 918.842 87.8629C926.045 88.5378 935.95 89.6625 940.903 90.1124C945.855 90.7872 957.561 92.1369 966.791 93.4866C976.02 94.6113 1010.69 96.4109 1043.55 97.3106L1103.43 99.1102L1106.36 88.9877C1114.92 96.6358 1119.42 97.9855 1125.5 97.9855C1130.45 97.7605 1143.05 96.8607 1153.64 95.736C1165.79 94.6113 1173.22 92.8118 1174.12 90.7872C1175.25 88.5378 1175.92 88.5378 1177.05 90.7872C1177.95 92.5868 1182 93.0367 1191.23 92.1369C1198.43 91.2371 1205.19 90.1124 1206.54 89.4376C1207.66 88.7628 1212.84 88.3129 1217.79 88.7627C1222.75 88.9877 1234.45 87.638 1243.68 85.6135C1252.91 83.589 1264.39 81.1146 1268.89 79.9899C1275.65 78.1903 1277.45 76.6157 1277.67 72.7917V67.6179C1281.95 77.7404 1282.18 77.7404 1292.53 74.3663C1298.61 72.5667 1304.91 70.3173 1306.71 69.4175C1308.51 68.7427 1310.54 67.8429 1311.21 67.8429C1311.89 67.6179 1317.29 66.0433 1323.37 64.2438C1329.45 62.4442 1334.63 60.1948 1335.08 59.295C1335.53 58.1703 1337.55 57.4954 1339.35 57.4954C1341.15 57.4954 1348.13 55.4709 1354.44 53.2215C1360.96 50.7471 1369.74 45.3484 1373.8 41.2994C1377.85 37.2504 1381 33.2014 1381 32.3016C1381 31.1769 1378.97 30.727 1376.5 31.1769C1374.02 31.4019 1371.09 32.7515 1370.19 33.8762C1369.29 35.2259 1365.47 36.1257 1361.87 36.3506C1358.04 36.5756 1351.51 38.1502 1347.23 40.1747C1342.96 41.9742 1334.85 44.6736 1329.22 46.0232C1323.6 47.3729 1311.89 50.5221 1303.34 52.7716C1294.56 55.021 1283.08 57.7204 1277.45 58.6201C1271.82 59.295 1259.21 61.5444 1249.31 63.344C1239.4 65.1435 1220.04 68.0678 1206.54 70.0923C1192.8 71.8919 1177.72 73.4665 1172.77 73.4665C1167.82 73.4665 1162.19 73.9164 1160.39 74.5912C1158.59 75.266 1121.44 75.7159 1078.22 75.7159C1034.78 75.491 990.878 74.3663 980.298 73.2416C969.717 71.8919 947.881 68.9676 931.898 66.4932C915.69 63.7939 892.503 60.1947 880.122 58.3952C867.741 56.3707 855.36 55.246 852.658 55.4709C849.732 55.9208 847.256 55.6959 847.03 54.7961C846.58 53.8963 826.995 50.0722 803.583 46.2482C779.947 42.6491 751.132 37.9252 739.426 36.1257C727.72 34.3261 698.681 30.2771 675.269 27.1279C651.632 24.2036 607.735 19.0299 577.344 15.8807C546.954 12.5065 510.035 8.90737 495.178 7.78265C480.32 6.65793 458.934 4.63342 447.904 3.28375Z" fill="white"/>
</svg>
